<?xml version="1.0"?>
<svg xmlns="http://www.w3.org/2000/svg" id="mobile-card" enable-background="new 0 0 300 300" height="512px" viewBox="0 0 300 300" width="512px"><g><circle cx="162" cy="254" r="10" fill="#FFFFFF"/><circle cx="122" cy="78" r="6" fill="#FFFFFF"/><circle cx="138" cy="78" r="6" fill="#FFFFFF"/><circle cx="154" cy="78" r="6" fill="#FFFFFF"/><path d="m88 168h-24c-2.209 0-4 1.789-4 4s1.791 4 4 4h24c2.209 0 4-1.789 4-4s-1.791-4-4-4z" fill="#FFFFFF"/><path d="m112 168h-12c-2.209 0-4 1.789-4 4s1.791 4 4 4h12c2.209 0 4-1.789 4-4s-1.791-4-4-4z" fill="#FFFFFF"/><path d="m264 60c0-19.852-16.148-36-36-36-17.099 0-31.422 11.992-35.073 28h-80.437c-9.092 0-16.49 7.398-16.49 16.492v47.508h-43.252c-4.824 0-8.748 3.922-8.748 8.746v58.508c0 4.824 3.924 8.746 8.748 8.746h106.506c4.824 0 8.746-3.922 8.746-8.746v-58.508c0-4.824-3.922-8.746-8.746-8.746h-55.254v-47.508c0-4.684 3.809-8.492 8.49-8.492h79.51c0 18.498 14.026 33.767 32 35.764v136.212h-120v-27.73c0-2.211-1.791-4-4-4s-4 1.789-4 4v31.73 23.531c0 9.094 7.398 16.492 16.49 16.492h103.018c9.094 0 16.492-7.398 16.492-16.492v-23.531-140.212c17.974-1.997 32-17.266 32-35.764zm-212 84h108v8h-108zm107.254 40h-106.506c-.412 0-.748-.336-.748-.746v-23.254h108v23.254c0 .41-.336.746-.746.746zm.746-59.254v11.254h-108v-11.254c0-.41.336-.746.748-.746h106.506c.41 0 .746.336.746.746zm64 134.762c0 4.684-3.809 8.492-8.492 8.492h-103.018c-4.682 0-8.49-3.809-8.49-8.492v-19.531h120zm4-171.508c-15.438 0-28-12.562-28-28s12.562-28 28-28 28 12.562 28 28-12.562 28-28 28z" fill="#FFFFFF"/><path d="m236.672 45.781-13.293 19.941-4.551-4.551c-1.562-1.562-4.094-1.562-5.656 0s-1.562 4.094 0 5.656l8 8c.754.755 1.773 1.173 2.828 1.173.129 0 .262-.008.395-.02 1.191-.117 2.27-.766 2.934-1.762l16-24c1.227-1.84.73-4.32-1.109-5.547-1.849-1.226-4.325-.73-5.548 1.11z" fill="#FFFFFF"/><path d="m80 80c2.209 0 4-1.789 4-4v-20c0-2.211-1.791-4-4-4s-4 1.789-4 4v20c0 2.211 1.791 4 4 4z" fill="#FFFFFF"/><path d="m64 96c0-2.211-1.791-4-4-4h-20c-2.209 0-4 1.789-4 4s1.791 4 4 4h20c2.209 0 4-1.789 4-4z" fill="#FFFFFF"/><path d="m61.434 82.523c.781.781 1.805 1.172 2.828 1.172s2.047-.391 2.828-1.172c1.562-1.562 1.562-4.094 0-5.656l-14.219-14.219c-1.562-1.562-4.094-1.562-5.656 0s-1.562 4.094 0 5.656z" fill="#FFFFFF"/></g></svg>
