<svg xmlns="http://www.w3.org/2000/svg" viewBox="0 0 155.14 143.07">
  <defs>
    <style>
      .cls-1, .cls-2 {
        fill: #e4002b;
        fill-rule: evenodd;
      }

      .cls-2 {
        opacity: 0.25;
      }
    </style>
  </defs>
  <g id="Layer_2" data-name="Layer 2">
    <g id="Icon">
      <g>
        <path class="cls-1" d="M138.83,116l16.31-42.48S147.31,33.63,111.19,0c0,0-.19,15.06-2.68,26.77A151.76,151.76,0,0,1,138.83,116m-31.62,2.32L127.3,117A140.55,140.55,0,0,0,86,18.38,142.91,142.91,0,0,0,71.28,5.55c-3.76,3.41-9.49,8-16.3,13a121.58,121.58,0,0,1,16.82,14,120.51,120.51,0,0,1,35.41,85.47ZM71.27,90.63a50.75,50.75,0,0,1,23.11,10.61A109.05,109.05,0,0,0,63.64,40.75a109.63,109.63,0,0,0-18.78-15c-6.18,4.19-12.79,8.39-19.37,12.16A89.72,89.72,0,0,1,49.43,55,89.16,89.16,0,0,1,71.27,90.63ZM38.76,94.19A56.58,56.58,0,0,1,58.7,89.74,77.67,77.67,0,0,0,41.27,63.13a77.53,77.53,0,0,0-29-18.31A105.72,105.72,0,0,1,0,49.82L2.29,62.71A57.63,57.63,0,0,1,27.05,77.34,57.78,57.78,0,0,1,38.76,94.19Zm71.83,35.1,9.06,13.78,7.89-14.92ZM8.51,97.69l19.33.4A46,46,0,0,0,18.9,85.5,46.23,46.23,0,0,0,4.61,75.78Z"/>
        <path class="cls-2" d="M18.81,85.41a95,95,0,0,0-3.16,12.43l12.19.25A46,46,0,0,0,18.9,85.5Z"/>
        <path class="cls-2" d="M57.76,35.29a94.44,94.44,0,0,0-16,12.84A90.65,90.65,0,0,1,49.43,55,89.16,89.16,0,0,1,71.27,90.63a50.75,50.75,0,0,1,23.11,10.61A109.05,109.05,0,0,0,63.64,40.75Q60.81,37.92,57.76,35.29Z"/>
        <path class="cls-2" d="M34.1,56.79A94.13,94.13,0,0,0,23.4,74q1.91,1.59,3.65,3.35A57.78,57.78,0,0,1,38.76,94.19,56.58,56.58,0,0,1,58.7,89.74,77.67,77.67,0,0,0,41.27,63.13,77,77,0,0,0,34.1,56.79Z"/>
        <path class="cls-2" d="M109.6,20.55c-.3,2.11-.66,4.22-1.09,6.22A151.76,151.76,0,0,1,138.83,116l16.31-42.48s-4.67-23.75-23.41-50A93.84,93.84,0,0,0,109.6,20.55Z"/>
        <path class="cls-2" d="M68.47,29.39Q70.16,31,71.8,32.6a120.51,120.51,0,0,1,35.41,85.47v.22L127.3,117A140.4,140.4,0,0,0,89.84,22.37,93.45,93.45,0,0,0,68.47,29.39Z"/>
        <path class="cls-2" d="M66.79,79.43a89.25,89.25,0,0,1,4.48,11.2,50.75,50.75,0,0,1,23.11,10.61A108.68,108.68,0,0,0,78.29,58.9,94.24,94.24,0,0,0,66.79,79.43Z"/>
        <path class="cls-2" d="M86,49.7a120.23,120.23,0,0,1,21.19,68.37v.22L127.3,117a140.23,140.23,0,0,0-25.86-80.31A94.66,94.66,0,0,0,86,49.7Z"/>
        <path class="cls-2" d="M111.41,30.78A151.72,151.72,0,0,1,138.83,116l16.31-42.48s-4.69-23.85-23.53-50.22A93.55,93.55,0,0,0,111.41,30.78Z"/>
        <path class="cls-2" d="M109.68,105.81a95.55,95.55,0,0,0,.79,12.27L127.3,117a140.36,140.36,0,0,0-9.42-49.69A93.93,93.93,0,0,0,109.68,105.81Z"/>
        <path class="cls-2" d="M124.94,54.36A151.62,151.62,0,0,1,138.83,116l16.31-42.48s-3.22-16.39-15.06-37A95,95,0,0,0,124.94,54.36Z"/>
      </g>
    </g>
  </g>
</svg>
